<svg width="23" height="23" viewBox="0 0 23 23" fill="none" xmlns="http://www.w3.org/2000/svg">
<path d="M21.3571 13.1429H13.1429V21.3571C13.1429 22.2607 12.4036 23 11.5 23C10.5964 23 9.85714 22.2607 9.85714 21.3571V13.1429H1.64286C0.739286 13.1429 0 12.4036 0 11.5C0 10.5964 0.739286 9.85714 1.64286 9.85714H9.85714V1.64286C9.85714 0.739286 10.5964 0 11.5 0C12.4036 0 13.1429 0.739286 13.1429 1.64286V9.85714H21.3571C22.2607 9.85714 23 10.5964 23 11.5C23 12.4036 22.2607 13.1429 21.3571 13.1429Z" fill="#B7B5B5"/>
</svg>
