<svg width="6" height="10" viewBox="0 0 6 10" fill="none" xmlns="http://www.w3.org/2000/svg">
<path d="M1.18894 0.197889L5.84792 4.63061C5.90322 4.68338 5.94248 4.74055 5.96571 4.80211C5.98893 4.86368 6.00036 4.92964 5.99999 5C5.99999 5.07036 5.98856 5.13632 5.96571 5.19789C5.94285 5.25945 5.90359 5.31662 5.84792 5.36939L1.18894 9.8153C1.05991 9.93843 0.898616 10 0.705068 10C0.51152 10 0.345621 9.93404 0.207373 9.80211C0.069124 9.67018 0 9.51627 0 9.34037C0 9.16447 0.069124 9.01055 0.207373 8.87863L4.27188 5L0.207373 1.12137C0.0783406 0.998241 0.0138245 0.846439 0.0138245 0.665964C0.0138245 0.485489 0.0829489 0.329464 0.221198 0.197889C0.359446 0.0659632 0.520736 0 0.705068 0C0.889399 0 1.05069 0.0659632 1.18894 0.197889Z" fill="#EE007E"/>
</svg>
