<svg width="6" height="10" viewBox="0 0 6 10" fill="none" xmlns="http://www.w3.org/2000/svg">
<path d="M4.59104 9.80211L0.145127 5.36939C0.0923563 5.31662 0.0548894 5.25945 0.0327258 5.19789C0.0105622 5.13632 -0.000343558 5.07036 8.24546e-06 5C8.24546e-06 4.92964 0.010914 4.86368 0.0327258 4.80211C0.0545376 4.74055 0.0920045 4.68338 0.145127 4.63061L4.59104 0.184697C4.71417 0.0615655 4.86808 0 5.05278 0C5.23747 0 5.39579 0.0659631 5.52771 0.197889C5.65964 0.329815 5.7256 0.483729 5.7256 0.659631C5.7256 0.835532 5.65964 0.989446 5.52771 1.12137L1.64908 5L5.52771 8.87863C5.65084 9.00176 5.71241 9.15356 5.71241 9.33404C5.71241 9.51451 5.64645 9.67054 5.51452 9.80211C5.38259 9.93404 5.22868 10 5.05278 10C4.87688 10 4.72296 9.93404 4.59104 9.80211Z" fill="#EE007E"/>
</svg>
