<svg width="13" height="7" viewBox="0 0 13 7" fill="none" xmlns="http://www.w3.org/2000/svg">
<path d="M11.9839 1.38709L6.56451 6.82257C6.49999 6.88709 6.4301 6.93289 6.35483 6.95999C6.27956 6.98709 6.19892 7.00042 6.1129 6.99999C6.02687 6.99999 5.94623 6.98666 5.87096 6.95999C5.79569 6.93332 5.7258 6.88752 5.66128 6.82257L0.225806 1.38709C0.0752687 1.23656 0 1.04839 0 0.822579C0 0.596773 0.0806451 0.403225 0.241935 0.241935C0.403225 0.0806446 0.591397 0 0.806451 0C1.0215 0 1.20968 0.0806446 1.37097 0.241935L6.1129 4.98386L10.8548 0.241935C11.0054 0.0913973 11.191 0.0161285 11.4116 0.0161285C11.6322 0.0161285 11.823 0.0967736 11.9839 0.258064C12.1451 0.419354 12.2258 0.607526 12.2258 0.822579C12.2258 1.03763 12.1451 1.2258 11.9839 1.38709Z" fill="#EE007E"/>
</svg>
