<svg width="15" height="15" viewBox="0 0 15 15" fill="none" xmlns="http://www.w3.org/2000/svg">
<path d="M1.46342 15C1.06098 15 0.716343 14.857 0.429513 14.571C0.142684 14.285 -0.000486563 13.9408 1.24229e-06 13.5384V3.30694C1.24229e-06 2.90499 0.143416 2.56078 0.430245 2.2743C0.717074 1.98782 1.06146 1.84482 1.46342 1.84531H7.9939L2.92683 6.90621V12.0767H8.10366L13.1707 6.99756V13.5384C13.1707 13.9403 13.0273 14.2845 12.7405 14.571C12.4537 14.8575 12.1093 15.0005 11.7073 15H1.46342ZM4.39024 10.6151V7.50913L9.64024 2.26553L12.7683 5.33496L7.5 10.6151H4.39024ZM13.811 4.29354L10.6829 1.22412L11.4695 0.43849C11.7622 0.146163 12.1129 0 12.5217 0C12.9305 0 13.2749 0.146163 13.5549 0.43849L14.5793 1.4799C14.8598 1.76005 15 2.1011 15 2.50304C15 2.90499 14.8598 3.24604 14.5793 3.52619L13.811 4.29354Z" fill="#8B8D9A"/>
</svg>
