<svg width="24" height="24" viewBox="0 0 24 24" fill="none" xmlns="http://www.w3.org/2000/svg">
<path d="M5 21C4.45 21 3.979 20.804 3.587 20.412C3.195 20.02 2.99934 19.5493 3 19V5C3 4.45 3.196 3.979 3.588 3.587C3.98 3.195 4.45067 2.99934 5 3H14.175C14.4417 3 14.696 3.05 14.938 3.15C15.18 3.25 15.3923 3.39167 15.575 3.575L20.425 8.425C20.6083 8.60834 20.75 8.821 20.85 9.063C20.95 9.305 21 9.559 21 9.825V19C21 19.55 20.804 20.021 20.412 20.413C20.02 20.805 19.5493 21.0007 19 21H5ZM8 17H16C16.2833 17 16.521 16.904 16.713 16.712C16.905 16.52 17.0007 16.2827 17 16C17 15.7167 16.904 15.479 16.712 15.287C16.52 15.095 16.2827 14.9993 16 15H8C7.71667 15 7.479 15.096 7.287 15.288C7.095 15.48 6.99934 15.7173 7 16C7 16.2833 7.096 16.521 7.288 16.713C7.48 16.905 7.71734 17.0007 8 17ZM8 13H16C16.2833 13 16.521 12.904 16.713 12.712C16.905 12.52 17.0007 12.2827 17 12C17 11.7167 16.904 11.479 16.712 11.287C16.52 11.095 16.2827 10.9993 16 11H8C7.71667 11 7.479 11.096 7.287 11.288C7.095 11.48 6.99934 11.7173 7 12C7 12.2833 7.096 12.521 7.288 12.713C7.48 12.905 7.71734 13.0007 8 13ZM8 9H13C13.2833 9 13.521 8.904 13.713 8.712C13.905 8.52 14.0007 8.28267 14 8C14 7.71667 13.904 7.479 13.712 7.287C13.52 7.095 13.2827 6.99934 13 7H8C7.71667 7 7.479 7.096 7.287 7.288C7.095 7.48 6.99934 7.71734 7 8C7 8.28334 7.096 8.521 7.288 8.713C7.48 8.905 7.71734 9.00067 8 9Z" fill="#8B8D9A"/>
</svg>
