<svg width="15" height="11" viewBox="0 0 15 11" fill="none" xmlns="http://www.w3.org/2000/svg">
<path d="M7.5 0C4.09091 0 1.17955 2.12045 0 5.11364C1.17955 8.10682 4.09091 10.2273 7.5 10.2273C10.9091 10.2273 13.8205 8.10682 15 5.11364C13.8205 2.12045 10.9091 0 7.5 0ZM7.5 8.52273C5.61818 8.52273 4.09091 6.99545 4.09091 5.11364C4.09091 3.23182 5.61818 1.70455 7.5 1.70455C9.38182 1.70455 10.9091 3.23182 10.9091 5.11364C10.9091 6.99545 9.38182 8.52273 7.5 8.52273ZM7.5 3.06818C6.36818 3.06818 5.45455 3.98182 5.45455 5.11364C5.45455 6.24545 6.36818 7.15909 7.5 7.15909C8.63182 7.15909 9.54545 6.24545 9.54545 5.11364C9.54545 3.98182 8.63182 3.06818 7.5 3.06818Z" fill="#8B8D9A"/>
</svg>
