<?xml version="1.0" encoding="UTF-8" standalone="no"?>
<!DOCTYPE svg PUBLIC "-//W3C//DTD SVG 1.1//EN" "http://www.w3.org/Graphics/SVG/1.1/DTD/svg11.dtd">
<svg xmlns="http://www.w3.org/2000/svg" version="1.1" viewBox="0.00 0.00 2560.00 788.00">
<g stroke-width="2.00" fill="none" stroke-linecap="butt">
<path stroke="#7c1457" vector-effect="non-scaling-stroke" d="
  M 619.24 431.30
  L 604.03 444.20"
/>
<path stroke="#7c1457" vector-effect="non-scaling-stroke" d="
  M 587.64 458.24
  L 269.19 458.25
  Q 269.07 458.25 269.02 458.15
  Q 268.95 458.03 268.83 457.96"
/>
<path stroke="#7c1457" vector-effect="non-scaling-stroke" d="
  M 254.30 444.19
  L 240.85 430.94"
/>
<path stroke="#7c1457" vector-effect="non-scaling-stroke" d="
  M 566.29 476.34
  L 565.92 476.08
  Q 565.68 475.91 565.39 475.91
  Q 427.26 476.34 289.13 476.25
  Q 289.06 476.25 289.00 476.20
  Q 288.89 476.13 288.79 476.05"
/>
</g>
<path fill="#d4098d" d="
  M 619.24 431.30
  L 604.03 444.20
  L 587.64 458.24
  L 269.19 458.25
  Q 269.07 458.25 269.02 458.15
  Q 268.95 458.03 268.83 457.96
  L 254.30 444.19
  L 240.85 430.94
  Q 186.51 377.16 138.81 317.49
  A 1.42 1.40 42.9 0 1 138.74 315.81
  Q 182.31 251.63 235.63 194.63
  Q 331.31 92.36 445.40 11.13
  Q 453.24 5.55 461.14 0.34
  Q 461.45 0.13 461.61 0.47
  C 484.98 50.82 517.90 95.75 555.00 136.76
  C 618.23 206.65 691.68 268.08 769.42 321.21
  Q 769.99 321.60 769.33 321.80
  C 765.33 323.03 761.35 324.37 757.72 326.41
  Q 737.71 337.68 720.76 350.26
  Q 670.28 387.73 619.24 431.30
  Z"
/>
<rect fill="#231f20" x="948.00" y="131.25" width="182.24" height="451.00" rx="0.57"/>
<path fill="#231f20" d="
  M 1379.89 582.25
  L 1198.36 582.25
  A 0.36 0.36 0.0 0 1 1198.00 581.89
  L 1198.00 131.61
  A 0.36 0.36 0.0 0 1 1198.36 131.25
  L 1380.05 131.25
  A 0.36 0.36 0.0 0 1 1380.27 131.33
  L 1713.92 392.62
  A 0.36 0.36 0.0 0 0 1714.50 392.34
  L 1714.50 131.61
  A 0.36 0.36 0.0 0 1 1714.86 131.25
  L 1896.39 131.25
  A 0.36 0.36 0.0 0 1 1896.75 131.61
  L 1896.75 581.89
  A 0.36 0.36 0.0 0 1 1896.39 582.25
  L 1714.50 582.25
  A 0.36 0.36 0.0 0 1 1714.28 582.18
  L 1380.83 325.69
  A 0.36 0.36 0.0 0 0 1380.25 325.97
  L 1380.25 581.89
  A 0.36 0.36 0.0 0 1 1379.89 582.25
  Z"
/>
<path fill="#231f20" d="
  M 2149.00 399.61
  L 2149.00 497.64
  A 0.61 0.61 0.0 0 0 2149.61 498.25
  L 2557.39 498.25
  A 0.61 0.61 0.0 0 1 2558.00 498.86
  L 2558.00 581.64
  A 0.61 0.61 0.0 0 1 2557.39 582.25
  L 1967.36 582.25
  A 0.61 0.61 0.0 0 1 1966.75 581.64
  L 1966.75 131.86
  A 0.61 0.61 0.0 0 1 1967.36 131.25
  L 2557.39 131.25
  A 0.61 0.61 0.0 0 1 2558.00 131.86
  L 2558.00 214.89
  A 0.61 0.61 0.0 0 1 2557.39 215.50
  L 2149.61 215.50
  A 0.61 0.61 0.0 0 0 2149.00 216.11
  L 2149.00 314.14
  A 0.61 0.61 0.0 0 0 2149.61 314.75
  L 2557.39 314.75
  A 0.61 0.61 0.0 0 1 2558.00 315.36
  L 2558.00 398.39
  A 0.61 0.61 0.0 0 1 2557.39 399.00
  L 2149.61 399.00
  A 0.61 0.61 0.0 0 0 2149.00 399.61
  Z"
/>
<path fill="#231f20" d="
  M 240.85 430.94
  L 254.30 444.19
  Q 188.14 444.30 122.70 444.24
  Q 120.49 444.24 118.52 445.23
  Q 106.63 451.18 93.27 457.81
  A 0.24 0.24 0.0 0 0 93.38 458.27
  L 268.83 457.96
  Q 268.95 458.03 269.02 458.15
  Q 269.07 458.25 269.19 458.25
  L 587.64 458.24
  L 782.30 458.25
  A 0.22 0.21 57.8 0 0 782.39 457.84
  Q 769.83 451.55 757.24 445.23
  Q 755.25 444.24 753.01 444.24
  Q 678.83 444.30 604.03 444.20
  L 619.24 431.30
  Q 619.26 431.35 619.28 431.40
  Q 619.31 431.50 619.50 431.50
  L 754.54 431.50
  A 4.13 3.98 -33.5 0 1 756.00 431.77
  L 869.01 475.57
  A 0.23 0.23 0.0 0 1 868.93 476.01
  Q 717.97 476.00 567.00 475.93
  Q 566.56 475.93 566.29 476.34
  L 565.92 476.08
  Q 565.68 475.91 565.39 475.91
  Q 427.26 476.34 289.13 476.25
  Q 289.06 476.25 289.00 476.20
  Q 288.89 476.13 288.79 476.05
  L 7.98 476.01
  Q 5.43 476.01 7.81 475.09
  Q 62.05 454.15 117.45 432.57
  Q 120.07 431.55 122.89 431.55
  Q 181.62 431.45 240.38 431.51
  Q 240.66 431.51 240.74 431.23
  Q 240.78 431.07 240.85 430.94
  Z"
/>
<path fill="#d4098d" d="
  M 566.29 476.34
  Q 503.16 531.24 440.49 587.89
  A 0.79 0.78 39.3 0 1 439.56 587.98
  C 385.66 555.84 335.44 517.99 288.79 476.05
  Q 288.89 476.13 289.00 476.20
  Q 289.06 476.25 289.13 476.25
  Q 427.26 476.34 565.39 475.91
  Q 565.68 475.91 565.92 476.08
  L 566.29 476.34
  Z"
/>
<rect fill="#231f20" x="1620.00" y="646.00" width="30.00" height="139.76" rx="0.58"/>
<rect fill="#231f20" x="1847.00" y="646.01" width="29.76" height="139.74" rx="0.27"/>
<rect fill="#231f20" x="2526.14" y="646.00" width="29.86" height="139.76" rx="0.27"/>
<path fill="#231f20" d="
  M 0.00 785.73
  L 0.00 653.15
  L 29.37 653.09
  Q 29.97 653.09 29.98 653.69
  L 30.05 785.21
  A 0.53 0.52 90.0 0 1 29.53 785.74
  L 0.00 785.73
  Z"
/>
<path fill="#231f20" d="
  M 871.30 688.32
  Q 872.79 736.83 872.12 785.35
  Q 872.12 785.75 871.71 785.75
  L 845.50 785.75
  Q 844.75 785.75 844.75 785.00
  L 844.75 653.61
  A 0.39 0.39 0.0 0 1 845.14 653.22
  L 879.27 653.26
  Q 879.86 653.26 880.15 653.77
  C 897.62 684.09 916.05 714.97 928.79 746.81
  A 0.45 0.45 0.0 0 0 929.65 746.60
  C 926.31 716.04 926.87 684.57 926.98 653.99
  A 0.78 0.77 -89.6 0 1 927.75 653.22
  L 954.13 653.26
  A 0.62 0.62 0.0 0 1 954.75 653.88
  L 954.75 785.25
  A 0.50 0.50 0.0 0 1 954.25 785.75
  L 923.73 785.75
  Q 923.11 785.75 922.81 785.21
  C 905.05 753.37 886.51 721.65 871.93 688.18
  A 0.33 0.33 0.0 0 0 871.30 688.32
  Z"
/>
<path fill="#231f20" d="
  M 1762.99 761.25
  L 1816.49 761.25
  A 0.51 0.51 0.0 0 1 1817.00 761.76
  L 1817.00 785.24
  A 0.51 0.51 0.0 0 1 1816.49 785.75
  L 1732.76 785.75
  A 0.51 0.51 0.0 0 1 1732.25 785.24
  L 1732.25 653.51
  A 0.51 0.51 0.0 0 1 1732.76 653.00
  L 1813.74 653.00
  A 0.51 0.51 0.0 0 1 1814.25 653.51
  L 1814.25 677.24
  A 0.51 0.51 0.0 0 1 1813.74 677.75
  L 1763.01 677.75
  A 0.51 0.51 0.0 0 0 1762.50 678.26
  L 1762.50 704.74
  A 0.51 0.51 0.0 0 0 1763.01 705.25
  L 1810.74 705.25
  A 0.51 0.51 0.0 0 1 1811.25 705.76
  L 1811.25 729.24
  A 0.51 0.51 0.0 0 1 1810.74 729.75
  L 1763.02 729.75
  A 0.51 0.51 0.0 0 0 1762.51 730.26
  L 1762.48 760.74
  A 0.51 0.51 0.0 0 0 1762.99 761.25
  Z"
/>
<path fill="#231f20" d="
  M 304.91 712.10
  Q 304.28 739.84 305.18 752.98
  C 305.98 764.61 316.35 763.78 324.89 762.75
  Q 325.43 762.68 325.44 763.23
  L 325.81 784.22
  Q 325.83 785.20 324.89 785.48
  Q 320.54 786.79 315.87 787.28
  C 291.01 789.87 276.07 780.88 275.72 754.43
  Q 275.43 733.17 275.50 712.03
  A 0.53 0.53 0.0 0 0 274.97 711.50
  L 263.25 711.50
  Q 262.75 711.50 262.75 711.00
  L 262.75 690.00
  A 0.50 0.50 0.0 0 1 263.25 689.50
  L 275.00 689.50
  Q 275.50 689.50 275.50 689.00
  L 275.50 669.24
  Q 275.50 668.70 276.03 668.58
  L 304.15 662.16
  A 0.51 0.51 0.0 0 1 304.78 662.66
  L 304.74 688.71
  Q 304.74 689.50 305.53 689.50
  L 325.62 689.50
  Q 326.25 689.50 326.25 690.12
  L 326.25 711.00
  Q 326.25 711.50 325.75 711.50
  L 305.51 711.50
  Q 304.92 711.50 304.91 712.10
  Z"
/>
<rect fill="#231f20" x="348.50" y="661.99" width="30.00" height="19.76" rx="0.75"/>
<path fill="#231f20" d="
  M 411.50 689.00
  L 411.50 669.28
  A 0.70 0.69 83.8 0 1 412.04 668.60
  L 439.76 662.27
  Q 441.00 661.98 441.00 663.26
  L 441.00 688.97
  Q 441.00 689.50 441.53 689.50
  L 461.89 689.50
  Q 462.28 689.50 462.28 689.89
  L 462.31 710.94
  A 0.56 0.56 0.0 0 1 461.75 711.50
  L 441.51 711.50
  A 0.55 0.55 0.0 0 0 440.96 712.05
  Q 441.02 731.53 441.02 750.94
  Q 441.02 752.30 442.30 756.99
  C 444.34 764.46 453.77 763.74 460.95 762.66
  A 0.64 0.63 85.3 0 1 461.68 763.28
  L 461.78 784.70
  A 0.83 0.81 -8.3 0 1 461.17 785.50
  Q 452.34 787.90 441.55 787.63
  C 418.52 787.06 412.09 772.34 411.76 751.94
  Q 411.44 732.02 411.49 712.20
  A 0.71 0.70 0.0 0 0 410.78 711.50
  L 399.50 711.50
  Q 398.75 711.50 398.75 710.75
  L 398.75 690.00
  A 0.50 0.50 0.0 0 1 399.25 689.50
  L 411.00 689.50
  Q 411.50 689.50 411.50 689.00
  Z"
/>
<path fill="#231f20" d="
  M 637.80 712.17
  Q 637.62 724.34 637.83 745.00
  C 638.00 761.40 641.55 764.65 657.86 762.73
  Q 658.42 762.66 658.43 763.22
  L 658.79 784.28
  A 1.21 1.21 0.0 0 1 657.92 785.47
  Q 653.53 786.76 648.92 787.26
  C 624.45 789.91 609.16 781.14 608.76 754.93
  Q 608.43 733.45 608.49 712.00
  A 0.50 0.50 0.0 0 0 607.99 711.50
  L 596.25 711.50
  Q 595.75 711.50 595.75 711.00
  L 595.75 690.00
  Q 595.75 689.50 596.25 689.50
  L 607.75 689.50
  Q 608.50 689.50 608.50 688.75
  L 608.50 669.23
  Q 608.50 668.69 609.03 668.57
  L 637.24 662.14
  A 0.43 0.43 0.0 0 1 637.77 662.56
  L 637.74 689.00
  Q 637.74 689.50 638.25 689.50
  L 658.75 689.50
  A 0.50 0.50 0.0 0 1 659.25 690.00
  L 659.25 711.00
  Q 659.25 711.50 658.75 711.50
  L 638.48 711.50
  A 0.68 0.68 0.0 0 0 637.80 712.17
  Z"
/>
<rect fill="#231f20" x="1198.50" y="661.99" width="30.00" height="19.76" rx="0.70"/>
<path fill="#231f20" d="
  M 2130.03 689.01
  L 2129.98 669.76
  A 1.30 1.29 -6.5 0 1 2130.99 668.50
  L 2158.74 662.16
  A 0.62 0.62 0.0 0 1 2159.50 662.76
  L 2159.50 689.00
  Q 2159.50 689.50 2160.00 689.50
  L 2180.22 689.50
  A 0.78 0.78 0.0 0 1 2181.00 690.28
  L 2181.00 711.00
  A 0.50 0.50 0.0 0 1 2180.50 711.50
  L 2160.02 711.50
  Q 2159.52 711.50 2159.52 711.99
  Q 2159.45 731.24 2159.54 750.43
  C 2159.60 763.42 2168.82 764.42 2179.06 762.74
  Q 2180.25 762.54 2180.25 763.75
  L 2180.25 784.75
  Q 2180.25 785.25 2179.77 785.39
  Q 2168.24 788.72 2156.62 787.39
  C 2138.40 785.30 2130.75 773.46 2130.31 755.74
  Q 2129.79 734.51 2130.07 712.07
  A 0.57 0.56 0.5 0 0 2129.50 711.50
  L 2118.00 711.50
  Q 2117.25 711.50 2117.25 710.75
  L 2117.25 690.00
  A 0.50 0.50 0.0 0 1 2117.75 689.50
  L 2129.55 689.50
  Q 2130.04 689.50 2130.03 689.01
  Z"
/>
<path fill="#231f20" d="
  M 87.71 702.62
  Q 101.77 684.87 122.95 687.89
  C 143.13 690.76 151.59 707.32 151.77 726.07
  Q 152.06 755.66 152.01 785.24
  A 0.51 0.51 0.0 0 1 151.50 785.75
  L 122.52 785.75
  A 0.49 0.49 0.0 0 1 122.03 785.26
  Q 121.94 757.82 122.01 730.51
  C 122.09 704.06 90.68 706.73 90.59 730.07
  Q 90.48 757.65 90.50 785.24
  Q 90.50 785.75 89.99 785.75
  L 61.22 785.75
  Q 60.63 785.75 60.64 785.16
  Q 61.20 737.57 60.01 689.98
  Q 60.00 689.50 60.48 689.50
  L 85.35 689.50
  Q 85.89 689.50 85.94 690.03
  L 87.14 702.45
  A 0.32 0.32 0.0 0 0 87.71 702.62
  Z"
/>
<path fill="#231f20" d="
  M 187.44 738.30
  C 175.90 729.27 175.03 712.58 183.56 701.55
  C 197.01 684.16 225.01 684.89 243.60 692.61
  A 0.74 0.74 0.0 0 1 244.03 693.49
  L 239.07 712.79
  A 0.71 0.71 0.0 0 1 238.06 713.24
  C 231.86 710.02 208.61 702.66 206.74 714.78
  C 205.75 721.25 214.17 724.09 219.00 725.76
  C 235.64 731.50 251.41 740.76 247.87 761.59
  C 242.46 793.40 197.27 790.59 176.27 781.63
  A 1.10 1.10 0.0 0 1 175.63 780.35
  L 180.55 760.50
  A 0.74 0.73 -68.8 0 1 181.61 760.03
  C 188.43 763.70 216.88 773.62 219.22 760.05
  C 220.45 752.96 211.95 750.01 206.51 748.31
  Q 196.08 745.05 187.44 738.30
  Z"
/>
<path fill="#231f20" d="
  M 726.68 788.00
  L 722.45 788.00
  C 697.76 786.19 680.05 772.61 675.85 748.02
  C 669.82 712.63 694.25 684.99 730.11 687.54
  C 761.09 689.74 779.19 714.33 775.20 744.65
  C 771.72 771.12 753.34 786.31 726.68 788.00
  Z
  M 724.68 708.78
  C 699.73 710.11 700.08 762.87 722.51 766.25
  C 751.79 770.65 752.21 707.30 724.68 708.78
  Z"
/>
<path fill="#231f20" d="
  M 1014.66 788.00
  L 1011.23 788.00
  Q 994.12 786.49 986.55 773.97
  C 978.77 761.10 981.37 744.16 992.77 734.07
  C 1003.74 724.36 1023.28 721.37 1037.27 721.79
  Q 1038.73 721.83 1038.62 720.37
  C 1037.15 700.18 1005.13 709.11 995.30 714.69
  Q 994.44 715.18 994.17 714.23
  L 989.20 696.75
  A 1.20 1.19 -20.4 0 1 989.85 695.34
  C 1019.85 681.33 1067.89 681.29 1068.51 727.32
  C 1068.77 746.44 1067.71 766.26 1069.96 785.22
  Q 1070.02 785.75 1069.49 785.75
  L 1043.66 785.75
  Q 1043.07 785.75 1042.97 785.17
  L 1041.40 776.58
  A 0.47 0.47 0.0 0 0 1040.59 776.34
  Q 1030.42 787.37 1014.66 788.00
  Z
  M 1012.90 761.28
  C 1015.08 766.85 1023.52 767.73 1028.34 766.12
  C 1040.76 761.96 1039.45 752.13 1039.51 741.17
  Q 1039.51 740.66 1039.01 740.62
  C 1027.37 739.65 1005.98 743.59 1012.90 761.28
  Z"
/>
<path fill="#231f20" d="
  M 1172.34 783.93
  C 1143.71 792.83 1105.13 787.64 1097.16 752.56
  C 1085.90 703.03 1130.73 677.55 1173.04 691.02
  Q 1173.42 691.14 1173.34 691.53
  L 1168.87 712.73
  Q 1168.76 713.28 1168.22 713.10
  C 1154.57 708.32 1138.92 708.97 1130.58 721.47
  C 1122.72 733.26 1125.36 752.84 1137.67 760.36
  C 1146.51 765.77 1159.10 765.16 1168.92 761.64
  Q 1169.72 761.36 1169.85 762.19
  L 1173.11 782.69
  Q 1173.26 783.64 1172.34 783.93
  Z"
/>
<path fill="#231f20" d="
  M 1307.42 788.00
  L 1303.19 788.00
  C 1276.50 785.46 1258.32 771.13 1255.87 743.90
  C 1254.42 727.83 1258.96 710.80 1271.21 699.88
  C 1291.82 681.50 1330.49 683.06 1347.03 706.38
  C 1357.73 721.48 1358.68 742.77 1351.71 759.69
  C 1344.48 777.27 1326.55 787.20 1307.42 788.00
  Z
  M 1304.50 708.82
  C 1282.22 710.19 1281.82 753.50 1296.50 763.52
  C 1305.55 769.70 1316.66 765.93 1321.35 756.28
  C 1327.94 742.69 1327.83 707.38 1304.50 708.82
  Z"
/>
<path fill="#231f20" d="
  M 1444.73 732.02
  C 1444.75 720.97 1440.33 709.66 1426.77 711.91
  C 1418.74 713.24 1413.31 721.41 1413.29 729.08
  Q 1413.23 757.14 1413.25 785.24
  Q 1413.25 785.75 1412.74 785.75
  L 1383.77 785.75
  A 0.50 0.50 0.0 0 1 1383.27 785.25
  C 1383.21 753.49 1383.35 721.84 1382.64 690.12
  Q 1382.62 689.50 1383.24 689.50
  L 1408.08 689.50
  Q 1408.59 689.50 1408.64 690.01
  L 1409.86 702.25
  A 0.50 0.50 0.0 0 0 1410.77 702.49
  C 1424.20 683.61 1453.83 681.60 1467.40 700.85
  C 1472.07 707.47 1474.68 717.78 1474.70 725.81
  Q 1474.80 755.55 1474.73 785.26
  A 0.49 0.49 0.0 0 1 1474.24 785.75
  L 1445.27 785.75
  Q 1444.79 785.75 1444.79 785.27
  Q 1444.68 758.57 1444.73 732.02
  Z"
/>
<path fill="#231f20" d="
  M 1533.93 788.00
  L 1530.47 788.00
  C 1505.98 786.30 1492.83 761.17 1506.41 740.44
  C 1516.53 724.99 1539.98 721.32 1556.98 721.83
  Q 1557.48 721.85 1557.52 721.34
  C 1558.17 712.55 1551.08 708.38 1543.25 708.01
  Q 1527.58 707.27 1513.88 714.91
  A 0.36 0.35 -22.4 0 1 1513.36 714.70
  L 1508.27 696.71
  A 1.16 1.15 -20.7 0 1 1508.89 695.35
  Q 1528.67 686.11 1550.09 687.70
  C 1576.98 689.69 1587.63 704.86 1587.72 730.76
  C 1587.78 748.90 1587.09 767.13 1589.01 785.19
  Q 1589.07 785.75 1588.50 785.75
  L 1562.72 785.75
  Q 1562.17 785.75 1562.07 785.21
  L 1560.46 776.58
  A 0.43 0.43 0.0 0 0 1559.72 776.37
  Q 1549.44 787.35 1533.93 788.00
  Z
  M 1530.76 756.72
  C 1531.24 764.66 1538.65 768.15 1545.76 766.51
  C 1559.56 763.34 1558.61 752.42 1558.56 741.18
  Q 1558.56 740.68 1558.06 740.64
  C 1547.47 739.71 1529.89 742.26 1530.76 756.72
  Z"
/>
<path fill="#231f20" d="
  M 1934.02 747.76
  C 1935.63 770.90 1972.87 766.07 1986.79 761.76
  A 0.68 0.68 0.0 0 1 1987.66 762.29
  L 1991.36 781.41
  Q 1991.46 781.91 1990.98 782.08
  C 1961.67 792.39 1917.11 792.11 1907.31 754.28
  C 1898.93 721.93 1917.63 686.47 1954.35 687.39
  C 1987.70 688.22 2000.85 717.41 1995.75 746.81
  Q 1995.67 747.25 1995.23 747.25
  L 1934.50 747.25
  Q 1933.99 747.25 1934.02 747.76
  Z
  M 1968.71 726.30
  C 1969.87 700.92 1936.35 701.10 1933.70 726.15
  Q 1933.64 726.75 1934.24 726.75
  L 1968.24 726.75
  Q 1968.69 726.75 1968.71 726.30
  Z"
/>
<path fill="#231f20" d="
  M 2088.76 785.77
  C 2061.12 791.96 2027.73 784.57 2020.45 752.50
  C 2015.87 732.33 2021.21 710.47 2038.45 697.85
  C 2054.60 686.04 2077.36 685.16 2096.17 690.87
  Q 2096.84 691.07 2096.70 691.75
  L 2092.18 712.93
  A 0.43 0.43 0.0 0 1 2091.60 713.24
  C 2071.27 705.22 2048.21 713.95 2049.59 738.66
  C 2050.95 762.93 2072.55 768.65 2092.43 761.61
  Q 2093.08 761.38 2093.19 762.06
  L 2096.49 782.80
  Q 2096.59 783.44 2095.99 783.68
  Q 2093.18 784.77 2088.76 785.77
  Z"
/>
<path fill="#231f20" d="
  M 2253.41 788.00
  L 2249.20 788.00
  C 2226.05 787.11 2207.21 773.29 2202.66 750.56
  C 2197.10 722.84 2209.53 695.86 2238.51 689.00
  C 2278.79 679.46 2308.88 709.76 2300.66 749.77
  C 2295.88 773.09 2276.57 786.97 2253.41 788.00
  Z
  M 2240.44 761.81
  C 2247.42 768.46 2257.64 768.03 2264.08 760.85
  C 2274.58 749.15 2274.87 711.22 2253.51 708.75
  C 2242.43 707.47 2235.70 716.65 2233.56 726.50
  C 2231.14 737.65 2231.69 753.48 2240.44 761.81
  Z"
/>
<path fill="#231f20" d="
  M 2356.10 706.84
  A 0.54 0.54 0.0 0 0 2357.15 706.99
  C 2361.85 693.70 2374.30 685.40 2388.73 687.90
  Q 2389.25 687.99 2389.25 688.51
  L 2389.25 715.26
  Q 2389.25 715.83 2388.68 715.77
  C 2369.41 713.63 2360.29 719.99 2360.10 739.37
  Q 2359.87 762.14 2360.05 785.24
  A 0.78 0.78 0.0 0 1 2359.26 786.02
  L 2330.74 785.67
  Q 2330.12 785.66 2330.13 785.04
  Q 2330.70 737.50 2329.53 689.97
  Q 2329.52 689.50 2330.00 689.50
  L 2354.71 689.50
  A 0.49 0.48 -1.2 0 1 2355.20 689.96
  L 2356.10 706.84
  Z"
/>
<path fill="#231f20" d="
  M 2439.15 788.00
  L 2435.48 788.00
  Q 2414.49 785.98 2408.14 768.65
  C 2404.52 758.75 2406.25 746.52 2412.78 738.31
  C 2423.29 725.09 2445.40 721.29 2462.04 721.88
  A 0.57 0.56 2.6 0 0 2462.63 721.35
  C 2463.06 712.57 2456.51 708.62 2448.75 708.15
  Q 2432.85 707.17 2418.98 714.87
  A 0.39 0.38 -22.4 0 1 2418.42 714.64
  L 2413.26 696.48
  A 0.91 0.90 69.9 0 1 2413.75 695.41
  Q 2433.92 686.05 2455.53 687.73
  C 2481.24 689.73 2492.79 704.47 2492.72 729.69
  C 2492.67 748.20 2492.34 766.74 2494.03 785.19
  Q 2494.08 785.75 2493.51 785.75
  L 2467.69 785.75
  Q 2467.20 785.75 2467.11 785.26
  L 2465.54 776.52
  A 0.38 0.38 0.0 0 0 2464.89 776.33
  Q 2454.41 787.26 2439.15 788.00
  Z
  M 2435.75 755.73
  C 2435.61 765.21 2444.83 768.78 2452.73 765.90
  C 2464.80 761.50 2463.92 751.88 2463.72 741.15
  Q 2463.71 740.73 2463.30 740.69
  C 2452.56 739.75 2435.96 742.02 2435.75 755.73
  Z"
/>
<rect fill="#231f20" x="348.50" y="689.50" width="30.00" height="96.26" rx="0.54"/>
<path fill="#231f20" d="
  M 520.43 788.00
  L 516.21 788.00
  C 494.42 786.96 484.44 769.36 484.33 749.43
  Q 484.17 719.70 484.28 689.98
  Q 484.28 689.50 484.76 689.50
  L 513.74 689.50
  Q 514.33 689.50 514.32 690.09
  Q 514.07 716.79 514.42 743.36
  C 514.54 752.58 517.68 763.16 528.17 763.68
  C 535.71 764.05 542.15 759.67 544.42 752.49
  Q 545.28 749.79 545.26 743.91
  Q 545.19 716.95 545.28 689.99
  Q 545.28 689.50 545.77 689.50
  L 574.82 689.50
  A 0.57 0.57 0.0 0 1 575.39 690.07
  L 575.75 785.41
  Q 575.75 785.75 575.41 785.75
  L 550.83 785.75
  A 0.74 0.74 0.0 0 1 550.09 785.08
  L 548.88 772.45
  Q 548.78 771.43 548.19 772.27
  Q 538.18 786.71 520.43 788.00
  Z"
/>
<rect fill="#231f20" x="1198.50" y="689.51" width="29.98" height="96.24" rx="0.46"/>
</svg>
