<svg width="306" height="119" viewBox="0 0 306 119" fill="none" xmlns="http://www.w3.org/2000/svg">
<rect x="1" y="1" width="304" height="117" rx="9" stroke="#B7B5B5" stroke-width="2" stroke-dasharray="10 10"/>
<path d="M105.169 95V85.2H107.045L112.827 92.256H111.917V85.2H114.157V95H112.295L106.499 87.944H107.409V95H105.169ZM119.499 95.112C118.874 95.112 118.314 94.9907 117.819 94.748C117.334 94.5053 116.956 94.1367 116.685 93.642C116.415 93.138 116.279 92.4987 116.279 91.724V87.468H118.463V91.402C118.463 92.0273 118.594 92.4893 118.855 92.788C119.126 93.0773 119.504 93.222 119.989 93.222C120.325 93.222 120.624 93.152 120.885 93.012C121.147 92.8627 121.352 92.6387 121.501 92.34C121.651 92.032 121.725 91.6493 121.725 91.192V87.468H123.909V95H121.837V92.928L122.215 93.53C121.963 94.0527 121.59 94.4493 121.095 94.72C120.61 94.9813 120.078 95.112 119.499 95.112ZM129.671 95.112C128.812 95.112 128.056 94.944 127.403 94.608C126.759 94.272 126.259 93.8147 125.905 93.236C125.55 92.648 125.373 91.9807 125.373 91.234C125.373 90.478 125.545 89.8107 125.891 89.232C126.245 88.644 126.726 88.1867 127.333 87.86C127.939 87.524 128.625 87.356 129.391 87.356C130.128 87.356 130.791 87.5147 131.379 87.832C131.976 88.14 132.447 88.588 132.793 89.176C133.138 89.7547 133.311 90.45 133.311 91.262C133.311 91.346 133.306 91.444 133.297 91.556C133.287 91.6587 133.278 91.7567 133.269 91.85H127.151V90.576H132.121L131.281 90.954C131.281 90.562 131.201 90.2213 131.043 89.932C130.884 89.6427 130.665 89.4187 130.385 89.26C130.105 89.092 129.778 89.008 129.405 89.008C129.031 89.008 128.7 89.092 128.411 89.26C128.131 89.4187 127.911 89.6473 127.753 89.946C127.594 90.2353 127.515 90.5807 127.515 90.982V91.318C127.515 91.7287 127.603 92.0927 127.781 92.41C127.967 92.718 128.224 92.956 128.551 93.124C128.887 93.2827 129.279 93.362 129.727 93.362C130.128 93.362 130.478 93.3013 130.777 93.18C131.085 93.0587 131.365 92.8767 131.617 92.634L132.779 93.894C132.433 94.286 131.999 94.5893 131.477 94.804C130.954 95.0093 130.352 95.112 129.671 95.112ZM136.672 95L133.508 87.468H135.762L138.394 93.95H137.274L140.004 87.468H142.104L138.926 95H136.672ZM147.369 95V93.53L147.229 93.208V90.576C147.229 90.1093 147.085 89.7453 146.795 89.484C146.515 89.2227 146.081 89.092 145.493 89.092C145.092 89.092 144.695 89.1573 144.303 89.288C143.921 89.4093 143.594 89.5773 143.323 89.792L142.539 88.266C142.95 87.9767 143.445 87.7527 144.023 87.594C144.602 87.4353 145.19 87.356 145.787 87.356C146.935 87.356 147.827 87.6267 148.461 88.168C149.096 88.7093 149.413 89.554 149.413 90.702V95H147.369ZM145.073 95.112C144.485 95.112 143.981 95.014 143.561 94.818C143.141 94.6127 142.819 94.3373 142.595 93.992C142.371 93.6467 142.259 93.2593 142.259 92.83C142.259 92.382 142.367 91.99 142.581 91.654C142.805 91.318 143.155 91.0567 143.631 90.87C144.107 90.674 144.728 90.576 145.493 90.576H147.495V91.85H145.731C145.218 91.85 144.863 91.934 144.667 92.102C144.481 92.27 144.387 92.48 144.387 92.732C144.387 93.012 144.495 93.236 144.709 93.404C144.933 93.5627 145.237 93.642 145.619 93.642C145.983 93.642 146.31 93.558 146.599 93.39C146.889 93.2127 147.099 92.956 147.229 92.62L147.565 93.628C147.407 94.1133 147.117 94.482 146.697 94.734C146.277 94.986 145.736 95.112 145.073 95.112ZM155.509 95V85.2H160.297C161.529 85.2 162.453 85.4333 163.069 85.9C163.694 86.3667 164.007 86.9827 164.007 87.748C164.007 88.2613 163.881 88.7093 163.629 89.092C163.377 89.4653 163.031 89.7547 162.593 89.96C162.154 90.1653 161.65 90.268 161.081 90.268L161.347 89.694C161.963 89.694 162.509 89.7967 162.985 90.002C163.461 90.198 163.829 90.492 164.091 90.884C164.361 91.276 164.497 91.7567 164.497 92.326C164.497 93.166 164.165 93.824 163.503 94.3C162.84 94.7667 161.865 95 160.577 95H155.509ZM157.763 93.292H160.409C160.997 93.292 161.44 93.1987 161.739 93.012C162.047 92.816 162.201 92.508 162.201 92.088C162.201 91.6773 162.047 91.374 161.739 91.178C161.44 90.9727 160.997 90.87 160.409 90.87H157.595V89.218H160.017C160.567 89.218 160.987 89.1247 161.277 88.938C161.575 88.742 161.725 88.448 161.725 88.056C161.725 87.6733 161.575 87.3887 161.277 87.202C160.987 87.006 160.567 86.908 160.017 86.908H157.763V93.292ZM169.644 95.112C168.841 95.112 168.127 94.944 167.502 94.608C166.886 94.272 166.396 93.8147 166.032 93.236C165.677 92.648 165.5 91.9807 165.5 91.234C165.5 90.478 165.677 89.8107 166.032 89.232C166.396 88.644 166.886 88.1867 167.502 87.86C168.127 87.524 168.841 87.356 169.644 87.356C170.437 87.356 171.146 87.524 171.772 87.86C172.397 88.1867 172.887 88.6393 173.242 89.218C173.596 89.7967 173.774 90.4687 173.774 91.234C173.774 91.9807 173.596 92.648 173.242 93.236C172.887 93.8147 172.397 94.272 171.772 94.608C171.146 94.944 170.437 95.112 169.644 95.112ZM169.644 93.32C170.008 93.32 170.334 93.236 170.624 93.068C170.913 92.9 171.142 92.662 171.31 92.354C171.478 92.0367 171.562 91.6633 171.562 91.234C171.562 90.7953 171.478 90.422 171.31 90.114C171.142 89.806 170.913 89.568 170.624 89.4C170.334 89.232 170.008 89.148 169.644 89.148C169.28 89.148 168.953 89.232 168.664 89.4C168.374 89.568 168.141 89.806 167.964 90.114C167.796 90.422 167.712 90.7953 167.712 91.234C167.712 91.6633 167.796 92.0367 167.964 92.354C168.141 92.662 168.374 92.9 168.664 93.068C168.953 93.236 169.28 93.32 169.644 93.32ZM175.234 95V84.612H177.418V95H175.234ZM183.183 95.112C182.324 95.112 181.568 94.944 180.915 94.608C180.271 94.272 179.771 93.8147 179.417 93.236C179.062 92.648 178.885 91.9807 178.885 91.234C178.885 90.478 179.057 89.8107 179.403 89.232C179.757 88.644 180.238 88.1867 180.845 87.86C181.451 87.524 182.137 87.356 182.903 87.356C183.64 87.356 184.303 87.5147 184.891 87.832C185.488 88.14 185.959 88.588 186.305 89.176C186.65 89.7547 186.823 90.45 186.823 91.262C186.823 91.346 186.818 91.444 186.809 91.556C186.799 91.6587 186.79 91.7567 186.781 91.85H180.663V90.576H185.633L184.793 90.954C184.793 90.562 184.713 90.2213 184.555 89.932C184.396 89.6427 184.177 89.4187 183.897 89.26C183.617 89.092 183.29 89.008 182.917 89.008C182.543 89.008 182.212 89.092 181.923 89.26C181.643 89.4187 181.423 89.6473 181.265 89.946C181.106 90.2353 181.027 90.5807 181.027 90.982V91.318C181.027 91.7287 181.115 92.0927 181.293 92.41C181.479 92.718 181.736 92.956 182.063 93.124C182.399 93.2827 182.791 93.362 183.239 93.362C183.64 93.362 183.99 93.3013 184.289 93.18C184.597 93.0587 184.877 92.8767 185.129 92.634L186.291 93.894C185.945 94.286 185.511 94.5893 184.989 94.804C184.466 95.0093 183.864 95.112 183.183 95.112ZM191.357 95.112C190.47 95.112 189.779 94.888 189.285 94.44C188.79 93.9827 188.543 93.306 188.543 92.41V85.802H190.727V92.382C190.727 92.6993 190.811 92.9467 190.979 93.124C191.147 93.292 191.375 93.376 191.665 93.376C192.01 93.376 192.304 93.2827 192.547 93.096L193.135 94.636C192.911 94.7947 192.64 94.916 192.323 95C192.015 95.0747 191.693 95.112 191.357 95.112ZM187.381 89.316V87.636H192.603V89.316H187.381ZM198.981 95V93.53L198.841 93.208V90.576C198.841 90.1093 198.696 89.7453 198.407 89.484C198.127 89.2227 197.693 89.092 197.105 89.092C196.703 89.092 196.307 89.1573 195.915 89.288C195.532 89.4093 195.205 89.5773 194.935 89.792L194.151 88.266C194.561 87.9767 195.056 87.7527 195.635 87.594C196.213 87.4353 196.801 87.356 197.399 87.356C198.547 87.356 199.438 87.6267 200.073 88.168C200.707 88.7093 201.025 89.554 201.025 90.702V95H198.981ZM196.685 95.112C196.097 95.112 195.593 95.014 195.173 94.818C194.753 94.6127 194.431 94.3373 194.207 93.992C193.983 93.6467 193.871 93.2593 193.871 92.83C193.871 92.382 193.978 91.99 194.193 91.654C194.417 91.318 194.767 91.0567 195.243 90.87C195.719 90.674 196.339 90.576 197.105 90.576H199.107V91.85H197.343C196.829 91.85 196.475 91.934 196.279 92.102C196.092 92.27 195.999 92.48 195.999 92.732C195.999 93.012 196.106 93.236 196.321 93.404C196.545 93.5627 196.848 93.642 197.231 93.642C197.595 93.642 197.921 93.558 198.211 93.39C198.5 93.2127 198.71 92.956 198.841 92.62L199.177 93.628C199.018 94.1133 198.729 94.482 198.309 94.734C197.889 94.986 197.347 95.112 196.685 95.112Z" fill="#B7B5B5"/>
<path d="M170.143 42.8571H155.857V57.1429C155.857 58.7143 154.571 60 153 60C151.429 60 150.143 58.7143 150.143 57.1429V42.8571H135.857C134.286 42.8571 133 41.5714 133 40C133 38.4286 134.286 37.1429 135.857 37.1429H150.143V22.8571C150.143 21.2857 151.429 20 153 20C154.571 20 155.857 21.2857 155.857 22.8571V37.1429H170.143C171.714 37.1429 173 38.4286 173 40C173 41.5714 171.714 42.8571 170.143 42.8571Z" fill="#B7B5B5"/>
</svg>
