<svg width="259" height="101" viewBox="0 0 259 101" fill="none" xmlns="http://www.w3.org/2000/svg">
<rect x="1" y="1" width="256.804" height="98.646" rx="9" stroke="#B7B5B5" stroke-width="2" stroke-dasharray="10 10"/>
<path d="M67.4615 82.3525V72.5525H69.3375L75.1195 79.6085H74.2095V72.5525H76.4495V82.3525H74.5875L68.7915 75.2965H69.7015V82.3525H67.4615ZM81.7921 82.4645C81.1668 82.4645 80.6068 82.3432 80.1121 82.1005C79.6268 81.8579 79.2488 81.4892 78.9781 80.9945C78.7075 80.4905 78.5721 79.8512 78.5721 79.0765V74.8205H80.7561V78.7545C80.7561 79.3799 80.8868 79.8419 81.1481 80.1405C81.4188 80.4299 81.7968 80.5745 82.2821 80.5745C82.6181 80.5745 82.9168 80.5045 83.1781 80.3645C83.4395 80.2152 83.6448 79.9912 83.7941 79.6925C83.9435 79.3845 84.0181 79.0019 84.0181 78.5445V74.8205H86.2021V82.3525H84.1301V80.2805L84.5081 80.8825C84.2561 81.4052 83.8828 81.8019 83.3881 82.0725C82.9028 82.3339 82.3708 82.4645 81.7921 82.4645ZM91.9635 82.4645C91.1048 82.4645 90.3488 82.2965 89.6955 81.9605C89.0515 81.6245 88.5521 81.1672 88.1975 80.5885C87.8428 80.0005 87.6655 79.3332 87.6655 78.5865C87.6655 77.8305 87.8381 77.1632 88.1835 76.5845C88.5381 75.9965 89.0188 75.5392 89.6255 75.2125C90.2321 74.8765 90.9181 74.7085 91.6835 74.7085C92.4208 74.7085 93.0835 74.8672 93.6715 75.1845C94.2688 75.4925 94.7401 75.9405 95.0855 76.5285C95.4308 77.1072 95.6035 77.8025 95.6035 78.6145C95.6035 78.6985 95.5988 78.7965 95.5895 78.9085C95.5801 79.0112 95.5708 79.1092 95.5615 79.2025H89.4435V77.9285H94.4135L93.5735 78.3065C93.5735 77.9145 93.4941 77.5739 93.3355 77.2845C93.1768 76.9952 92.9575 76.7712 92.6775 76.6125C92.3975 76.4445 92.0708 76.3605 91.6975 76.3605C91.3241 76.3605 90.9928 76.4445 90.7035 76.6125C90.4235 76.7712 90.2041 76.9999 90.0455 77.2985C89.8868 77.5879 89.8075 77.9332 89.8075 78.3345V78.6705C89.8075 79.0812 89.8961 79.4452 90.0735 79.7625C90.2601 80.0705 90.5168 80.3085 90.8435 80.4765C91.1795 80.6352 91.5715 80.7145 92.0195 80.7145C92.4208 80.7145 92.7708 80.6539 93.0695 80.5325C93.3775 80.4112 93.6575 80.2292 93.9095 79.9865L95.0715 81.2465C94.7261 81.6385 94.2921 81.9419 93.7695 82.1565C93.2468 82.3619 92.6448 82.4645 91.9635 82.4645ZM98.9648 82.3525L95.8008 74.8205H98.0548L100.687 81.3025H99.5668L102.297 74.8205H104.397L101.219 82.3525H98.9648ZM109.662 82.3525V80.8825L109.522 80.5605V77.9285C109.522 77.4619 109.377 77.0979 109.088 76.8365C108.808 76.5752 108.374 76.4445 107.786 76.4445C107.385 76.4445 106.988 76.5099 106.596 76.6405C106.213 76.7619 105.887 76.9299 105.616 77.1445L104.832 75.6185C105.243 75.3292 105.737 75.1052 106.316 74.9465C106.895 74.7879 107.483 74.7085 108.08 74.7085C109.228 74.7085 110.119 74.9792 110.754 75.5205C111.389 76.0619 111.706 76.9065 111.706 78.0545V82.3525H109.662ZM107.366 82.4645C106.778 82.4645 106.274 82.3665 105.854 82.1705C105.434 81.9652 105.112 81.6899 104.888 81.3445C104.664 80.9992 104.552 80.6119 104.552 80.1825C104.552 79.7345 104.659 79.3425 104.874 79.0065C105.098 78.6705 105.448 78.4092 105.924 78.2225C106.4 78.0265 107.021 77.9285 107.786 77.9285H109.788V79.2025H108.024C107.511 79.2025 107.156 79.2865 106.96 79.4545C106.773 79.6225 106.68 79.8325 106.68 80.0845C106.68 80.3645 106.787 80.5885 107.002 80.7565C107.226 80.9152 107.529 80.9945 107.912 80.9945C108.276 80.9945 108.603 80.9105 108.892 80.7425C109.181 80.5652 109.391 80.3085 109.522 79.9725L109.858 80.9805C109.699 81.4659 109.41 81.8345 108.99 82.0865C108.57 82.3385 108.029 82.4645 107.366 82.4645ZM122.491 82.5205C121.735 82.5205 121.031 82.3992 120.377 82.1565C119.733 81.9045 119.173 81.5499 118.697 81.0925C118.221 80.6352 117.848 80.0985 117.577 79.4825C117.316 78.8665 117.185 78.1899 117.185 77.4525C117.185 76.7152 117.316 76.0385 117.577 75.4225C117.848 74.8065 118.221 74.2699 118.697 73.8125C119.183 73.3552 119.747 73.0052 120.391 72.7625C121.035 72.5105 121.74 72.3845 122.505 72.3845C123.355 72.3845 124.12 72.5339 124.801 72.8325C125.492 73.1219 126.071 73.5512 126.537 74.1205L125.081 75.4645C124.745 75.0819 124.372 74.7972 123.961 74.6105C123.551 74.4145 123.103 74.3165 122.617 74.3165C122.16 74.3165 121.74 74.3912 121.357 74.5405C120.975 74.6899 120.643 74.9045 120.363 75.1845C120.083 75.4645 119.864 75.7959 119.705 76.1785C119.556 76.5612 119.481 76.9859 119.481 77.4525C119.481 77.9192 119.556 78.3439 119.705 78.7265C119.864 79.1092 120.083 79.4405 120.363 79.7205C120.643 80.0005 120.975 80.2152 121.357 80.3645C121.74 80.5139 122.16 80.5885 122.617 80.5885C123.103 80.5885 123.551 80.4952 123.961 80.3085C124.372 80.1125 124.745 79.8185 125.081 79.4265L126.537 80.7705C126.071 81.3399 125.492 81.7739 124.801 82.0725C124.12 82.3712 123.35 82.5205 122.491 82.5205ZM132.494 82.3525V80.8825L132.354 80.5605V77.9285C132.354 77.4619 132.209 77.0979 131.92 76.8365C131.64 76.5752 131.206 76.4445 130.618 76.4445C130.217 76.4445 129.82 76.5099 129.428 76.6405C129.045 76.7619 128.719 76.9299 128.448 77.1445L127.664 75.6185C128.075 75.3292 128.569 75.1052 129.148 74.9465C129.727 74.7879 130.315 74.7085 130.912 74.7085C132.06 74.7085 132.951 74.9792 133.586 75.5205C134.221 76.0619 134.538 76.9065 134.538 78.0545V82.3525H132.494ZM130.198 82.4645C129.61 82.4645 129.106 82.3665 128.686 82.1705C128.266 81.9652 127.944 81.6899 127.72 81.3445C127.496 80.9992 127.384 80.6119 127.384 80.1825C127.384 79.7345 127.491 79.3425 127.706 79.0065C127.93 78.6705 128.28 78.4092 128.756 78.2225C129.232 78.0265 129.853 77.9285 130.618 77.9285H132.62V79.2025H130.856C130.343 79.2025 129.988 79.2865 129.792 79.4545C129.605 79.6225 129.512 79.8325 129.512 80.0845C129.512 80.3645 129.619 80.5885 129.834 80.7565C130.058 80.9152 130.361 80.9945 130.744 80.9945C131.108 80.9945 131.435 80.9105 131.724 80.7425C132.013 80.5652 132.223 80.3085 132.354 79.9725L132.69 80.9805C132.531 81.4659 132.242 81.8345 131.822 82.0865C131.402 82.3385 130.861 82.4645 130.198 82.4645ZM141.093 74.7085C141.69 74.7085 142.222 74.8299 142.689 75.0725C143.165 75.3059 143.538 75.6699 143.809 76.1645C144.079 76.6499 144.215 77.2752 144.215 78.0405V82.3525H142.031V78.3765C142.031 77.7699 141.895 77.3219 141.625 77.0325C141.363 76.7432 140.99 76.5985 140.505 76.5985C140.159 76.5985 139.847 76.6732 139.567 76.8225C139.296 76.9625 139.081 77.1819 138.923 77.4805C138.773 77.7792 138.699 78.1619 138.699 78.6285V82.3525H136.515V74.8205H138.601V76.9065L138.209 76.2765C138.479 75.7725 138.867 75.3852 139.371 75.1145C139.875 74.8439 140.449 74.7085 141.093 74.7085ZM149.483 82.4645C148.774 82.4645 148.134 82.3059 147.565 81.9885C146.996 81.6619 146.543 81.2092 146.207 80.6305C145.88 80.0519 145.717 79.3705 145.717 78.5865C145.717 77.7932 145.88 77.1072 146.207 76.5285C146.543 75.9499 146.996 75.5019 147.565 75.1845C148.134 74.8672 148.774 74.7085 149.483 74.7085C150.118 74.7085 150.673 74.8485 151.149 75.1285C151.625 75.4085 151.994 75.8332 152.255 76.4025C152.516 76.9719 152.647 77.6999 152.647 78.5865C152.647 79.4639 152.521 80.1919 152.269 80.7705C152.017 81.3399 151.653 81.7645 151.177 82.0445C150.71 82.3245 150.146 82.4645 149.483 82.4645ZM149.861 80.6725C150.216 80.6725 150.538 80.5885 150.827 80.4205C151.116 80.2525 151.345 80.0145 151.513 79.7065C151.69 79.3892 151.779 79.0159 151.779 78.5865C151.779 78.1479 151.69 77.7745 151.513 77.4665C151.345 77.1585 151.116 76.9205 150.827 76.7525C150.538 76.5845 150.216 76.5005 149.861 76.5005C149.497 76.5005 149.17 76.5845 148.881 76.7525C148.592 76.9205 148.358 77.1585 148.181 77.4665C148.013 77.7745 147.929 78.1479 147.929 78.5865C147.929 79.0159 148.013 79.3892 148.181 79.7065C148.358 80.0145 148.592 80.2525 148.881 80.4205C149.17 80.5885 149.497 80.6725 149.861 80.6725ZM151.835 82.3525V80.8125L151.877 78.5725L151.737 76.3465V71.9645H153.921V82.3525H151.835ZM155.942 82.3525V74.8205H158.126V82.3525H155.942ZM157.034 73.7705C156.633 73.7705 156.306 73.6539 156.054 73.4205C155.802 73.1872 155.676 72.8979 155.676 72.5525C155.676 72.2072 155.802 71.9179 156.054 71.6845C156.306 71.4512 156.633 71.3345 157.034 71.3345C157.436 71.3345 157.762 71.4465 158.014 71.6705C158.266 71.8852 158.392 72.1652 158.392 72.5105C158.392 72.8745 158.266 73.1779 158.014 73.4205C157.772 73.6539 157.445 73.7705 157.034 73.7705ZM163.387 82.4645C162.678 82.4645 162.039 82.3059 161.469 81.9885C160.9 81.6619 160.447 81.2092 160.111 80.6305C159.785 80.0519 159.621 79.3705 159.621 78.5865C159.621 77.7932 159.785 77.1072 160.111 76.5285C160.447 75.9499 160.9 75.5019 161.469 75.1845C162.039 74.8672 162.678 74.7085 163.387 74.7085C164.022 74.7085 164.577 74.8485 165.053 75.1285C165.529 75.4085 165.898 75.8332 166.159 76.4025C166.421 76.9719 166.551 77.6999 166.551 78.5865C166.551 79.4639 166.425 80.1919 166.173 80.7705C165.921 81.3399 165.557 81.7645 165.081 82.0445C164.615 82.3245 164.05 82.4645 163.387 82.4645ZM163.765 80.6725C164.12 80.6725 164.442 80.5885 164.731 80.4205C165.021 80.2525 165.249 80.0145 165.417 79.7065C165.595 79.3892 165.683 79.0159 165.683 78.5865C165.683 78.1479 165.595 77.7745 165.417 77.4665C165.249 77.1585 165.021 76.9205 164.731 76.7525C164.442 76.5845 164.12 76.5005 163.765 76.5005C163.401 76.5005 163.075 76.5845 162.785 76.7525C162.496 76.9205 162.263 77.1585 162.085 77.4665C161.917 77.7745 161.833 78.1479 161.833 78.5865C161.833 79.0159 161.917 79.3892 162.085 79.7065C162.263 80.0145 162.496 80.2525 162.785 80.4205C163.075 80.5885 163.401 80.6725 163.765 80.6725ZM165.739 82.3525V80.8125L165.781 78.5725L165.641 76.3465V71.9645H167.825V82.3525H165.739ZM174.467 82.3525V80.8825L174.327 80.5605V77.9285C174.327 77.4619 174.182 77.0979 173.893 76.8365C173.613 76.5752 173.179 76.4445 172.591 76.4445C172.189 76.4445 171.793 76.5099 171.401 76.6405C171.018 76.7619 170.691 76.9299 170.421 77.1445L169.637 75.6185C170.047 75.3292 170.542 75.1052 171.121 74.9465C171.699 74.7879 172.287 74.7085 172.885 74.7085C174.033 74.7085 174.924 74.9792 175.559 75.5205C176.193 76.0619 176.511 76.9065 176.511 78.0545V82.3525H174.467ZM172.171 82.4645C171.583 82.4645 171.079 82.3665 170.659 82.1705C170.239 81.9652 169.917 81.6899 169.693 81.3445C169.469 80.9992 169.357 80.6119 169.357 80.1825C169.357 79.7345 169.464 79.3425 169.679 79.0065C169.903 78.6705 170.253 78.4092 170.729 78.2225C171.205 78.0265 171.825 77.9285 172.591 77.9285H174.593V79.2025H172.829C172.315 79.2025 171.961 79.2865 171.765 79.4545C171.578 79.6225 171.485 79.8325 171.485 80.0845C171.485 80.3645 171.592 80.5885 171.807 80.7565C172.031 80.9152 172.334 80.9945 172.717 80.9945C173.081 80.9945 173.407 80.9105 173.697 80.7425C173.986 80.5652 174.196 80.3085 174.327 79.9725L174.663 80.9805C174.504 81.4659 174.215 81.8345 173.795 82.0865C173.375 82.3385 172.833 82.4645 172.171 82.4645ZM181.567 82.4645C180.681 82.4645 179.99 82.2405 179.495 81.7925C179.001 81.3352 178.753 80.6585 178.753 79.7625V73.1545H180.937V79.7345C180.937 80.0519 181.021 80.2992 181.189 80.4765C181.357 80.6445 181.586 80.7285 181.875 80.7285C182.221 80.7285 182.515 80.6352 182.757 80.4485L183.345 81.9885C183.121 82.1472 182.851 82.2685 182.533 82.3525C182.225 82.4272 181.903 82.4645 181.567 82.4645ZM177.591 76.6685V74.9885H182.813V76.6685H177.591ZM187.923 82.4645C187.12 82.4645 186.406 82.2965 185.781 81.9605C185.165 81.6245 184.675 81.1672 184.311 80.5885C183.956 80.0005 183.779 79.3332 183.779 78.5865C183.779 77.8305 183.956 77.1632 184.311 76.5845C184.675 75.9965 185.165 75.5392 185.781 75.2125C186.406 74.8765 187.12 74.7085 187.923 74.7085C188.716 74.7085 189.425 74.8765 190.051 75.2125C190.676 75.5392 191.166 75.9919 191.521 76.5705C191.875 77.1492 192.053 77.8212 192.053 78.5865C192.053 79.3332 191.875 80.0005 191.521 80.5885C191.166 81.1672 190.676 81.6245 190.051 81.9605C189.425 82.2965 188.716 82.4645 187.923 82.4645ZM187.923 80.6725C188.287 80.6725 188.613 80.5885 188.903 80.4205C189.192 80.2525 189.421 80.0145 189.589 79.7065C189.757 79.3892 189.841 79.0159 189.841 78.5865C189.841 78.1479 189.757 77.7745 189.589 77.4665C189.421 77.1585 189.192 76.9205 188.903 76.7525C188.613 76.5845 188.287 76.5005 187.923 76.5005C187.559 76.5005 187.232 76.5845 186.943 76.7525C186.653 76.9205 186.42 77.1585 186.243 77.4665C186.075 77.7745 185.991 78.1479 185.991 78.5865C185.991 79.0159 186.075 79.3892 186.243 79.7065C186.42 80.0145 186.653 80.2525 186.943 80.4205C187.232 80.5885 187.559 80.6725 187.923 80.6725Z" fill="#B7B5B5"/>
<path d="M143.901 36.2468H131.818V48.3292C131.818 49.6582 130.731 50.7456 129.402 50.7456C128.073 50.7456 126.986 49.6582 126.986 48.3292V36.2468H114.903C113.574 36.2468 112.487 35.1594 112.487 33.8303C112.487 32.5013 113.574 31.4139 114.903 31.4139H126.986V19.3315C126.986 18.0025 128.073 16.915 129.402 16.915C130.731 16.915 131.818 18.0025 131.818 19.3315V31.4139H143.901C145.23 31.4139 146.317 32.5013 146.317 33.8303C146.317 35.1594 145.23 36.2468 143.901 36.2468Z" fill="#B7B5B5"/>
</svg>
