<svg width="24" height="18" viewBox="0 0 24 18" fill="none" xmlns="http://www.w3.org/2000/svg">
<path d="M5.6665 8H7V16H9V9H11V16H13V9H15V16H17V8H18.333C18.701 8 19 7.632 19 7.3005C19 7.1 18.8895 6.874 18.7225 6.765L18.7235 6.739L18.713 6.7205L18.78 6.704L12.5 3.4695V2.5235C13.5 3.053 14.4755 2.141 16 2.6895V0.6C14.4745 0.0519999 13.5 0.9635 12.5 0.434V0.3C12.5 0.1345 12.1845 0 12 0C11.8155 0 11.5 0.1345 11.5 0.3V3.4695L5.2205 6.6975L5.356 6.708L5.5 6.7135V6.7145C5 6.8235 5.112 7.0995 5.112 7.3C5.1115 7.632 5.2985 8 5.6665 8ZM6.5 16.5L5 18H19L17.5 16.5H6.5ZM17.5 8.5V16H17.9425L18.138 16.2765L19.471 17.526L19.9425 18H24V8.5H17.5ZM20.5 14.5H19V13H20.5V14.5ZM20.5 11.5H19V10H20.5V11.5ZM22.5 14.5H21.5V13H22.5V14.5ZM22.5 11.5H21.5V10H22.5V11.5ZM6.057 16H6.5V8.5H0V18H4.057L4.528 17.576L5.8615 16.276L6.057 16ZM2.5 14.5H1.5V13H2.5V14.5ZM2.5 11.5H1.5V10H2.5V11.5ZM5 14.5H3.5V13H5V14.5ZM5 11.5H3.5V10H5V11.5Z" fill="#EE007E"/>
</svg>
