<svg width="81" height="81" viewBox="0 0 81 81" fill="none" xmlns="http://www.w3.org/2000/svg">
<path d="M58.6878 2.10425H74.8545C75.9264 2.10425 76.9544 2.53007 77.7124 3.28802C78.4703 4.04598 78.8962 5.074 78.8962 6.14591V22.3126M78.8962 58.6876V74.8542C78.8962 75.9262 78.4703 76.9542 77.7124 77.7121C76.9544 78.4701 75.9264 78.8959 74.8545 78.8959H58.6878M22.3128 78.8959H6.14616C5.07424 78.8959 4.04623 78.4701 3.28827 77.7121C2.53031 76.9542 2.10449 75.9262 2.10449 74.8542V58.6876M2.10449 22.3126V6.14591C2.10449 5.074 2.53031 4.04598 3.28827 3.28802C4.04623 2.53007 5.07424 2.10425 6.14616 2.10425H22.3128" stroke="#ABABAB" stroke-width="4" stroke-linecap="round" stroke-linejoin="round"/>
<path d="M40.5 68.7918C53.8921 68.7918 64.75 56.1252 64.75 40.5002C64.75 24.8751 53.8921 12.2085 40.5 12.2085C27.1079 12.2085 16.25 24.8751 16.25 40.5002C16.25 56.1252 27.1079 68.7918 40.5 68.7918Z" stroke="#ABABAB" stroke-width="4"/>
<path d="M4.125 40.5H40.5H76.875M32.5581 52.8392C35.1185 54.7327 37.7658 55.6785 40.5 55.6785C43.2322 55.6785 45.9522 54.7327 48.6601 52.8392" stroke="#ABABAB" stroke-width="4" stroke-linecap="round"/>
</svg>
