<svg width="25" height="25" viewBox="0 0 25 25" fill="none" xmlns="http://www.w3.org/2000/svg">
<path d="M20.8334 22.9166H4.16675V20.8333C4.16675 19.452 4.71548 18.1272 5.69223 17.1504C6.66899 16.1737 7.99375 15.625 9.37508 15.625H15.6251C17.0064 15.625 18.3312 16.1737 19.3079 17.1504C20.2847 18.1272 20.8334 19.452 20.8334 20.8333V22.9166ZM12.5001 13.5416C11.6793 13.5416 10.8666 13.38 10.1083 13.0659C9.35003 12.7518 8.66103 12.2914 8.08066 11.711C7.5003 11.1307 7.03993 10.4417 6.72583 9.6834C6.41174 8.92511 6.25008 8.11239 6.25008 7.29163C6.25008 6.47086 6.41174 5.65814 6.72583 4.89985C7.03993 4.14157 7.5003 3.45257 8.08066 2.87221C8.66103 2.29184 9.35003 1.83147 10.1083 1.51738C10.8666 1.20329 11.6793 1.04163 12.5001 1.04163C14.1577 1.04163 15.7474 1.70011 16.9195 2.87221C18.0916 4.04431 18.7501 5.63402 18.7501 7.29163C18.7501 8.94923 18.0916 10.5389 16.9195 11.711C15.7474 12.8831 14.1577 13.5416 12.5001 13.5416Z" fill="#EE007E"/>
</svg>
