<svg width="24" height="16" viewBox="0 0 24 16" fill="none" xmlns="http://www.w3.org/2000/svg">
<path d="M15.419 14.3403C15.4928 14.4534 15.5347 14.5844 15.5402 14.7194C15.5457 14.8544 15.5146 14.9884 15.4503 15.1072C15.3859 15.226 15.2907 15.3252 15.1746 15.3943C15.0586 15.4634 14.926 15.4999 14.7909 15.5H0.959015C0.823917 15.4999 0.691332 15.4634 0.575268 15.3943C0.459204 15.3252 0.36397 15.226 0.299628 15.1072C0.235287 14.9884 0.204226 14.8544 0.209729 14.7194C0.215232 14.5844 0.257093 14.4534 0.33089 14.3403C1.38661 12.7152 2.93948 11.4751 4.75776 10.805C3.75258 10.1358 2.98943 9.16085 2.58117 8.02439C2.17291 6.88792 2.14122 5.65024 2.49079 4.49437C2.84035 3.3385 3.55261 2.32581 4.52224 1.60605C5.49187 0.886294 6.66738 0.497681 7.87495 0.497681C9.08252 0.497681 10.258 0.886294 11.2277 1.60605C12.1973 2.32581 12.9096 3.3385 13.2591 4.49437C13.6087 5.65024 13.577 6.88792 13.1687 8.02439C12.7605 9.16085 11.9973 10.1358 10.9921 10.805C12.8104 11.4751 14.3633 12.7152 15.419 14.3403ZM23.6606 14.3262C22.6046 12.708 21.0552 11.4732 19.2421 10.805C20.4288 10.0056 21.2663 8.78409 21.5841 7.38904C21.9019 5.99398 21.6761 4.53026 20.9527 3.2958C20.2293 2.06134 19.0627 1.14894 17.6903 0.744303C16.318 0.339669 14.843 0.473222 13.5656 1.11778C13.5167 1.143 13.474 1.17865 13.4405 1.2222C13.407 1.26576 13.3834 1.31616 13.3715 1.36983C13.3596 1.4235 13.3597 1.47912 13.3716 1.53277C13.3836 1.58642 13.4073 1.63678 13.4409 1.68028C14.3907 2.8651 14.9362 4.32294 14.9975 5.84026C15.0587 7.35758 14.6325 8.85464 13.7812 10.1122C13.7262 10.1943 13.7058 10.2949 13.7246 10.392C13.7434 10.4891 13.7998 10.5749 13.8815 10.6306C14.9914 11.4052 15.9416 12.3866 16.68 13.5209C16.9777 13.977 17.0994 14.5258 17.0221 15.065C17.0134 15.1186 17.0165 15.1735 17.0311 15.2258C17.0457 15.2781 17.0715 15.3267 17.1068 15.368C17.142 15.4094 17.1858 15.4426 17.2351 15.4654C17.2844 15.4882 17.3381 15.5 17.3925 15.5H23.0456C23.2107 15.5 23.3713 15.4456 23.5023 15.345C23.6333 15.2445 23.7275 15.1036 23.7703 14.944C23.7963 14.8391 23.8 14.7299 23.7811 14.6234C23.7623 14.517 23.7212 14.4157 23.6606 14.3262Z" fill="#8B8D9A"/>
</svg>
