<svg width="24" height="16" viewBox="0 0 24 16" fill="none" xmlns="http://www.w3.org/2000/svg">
<path d="M15.4191 14.3403C15.4929 14.4535 15.5347 14.5845 15.5402 14.7195C15.5457 14.8545 15.5147 14.9884 15.4503 15.1072C15.386 15.226 15.2907 15.3252 15.1747 15.3944C15.0586 15.4635 14.926 15.5 14.7909 15.5H0.959061C0.823963 15.5 0.691378 15.4635 0.575314 15.3944C0.459249 15.3252 0.364016 15.226 0.299674 15.1072C0.235332 14.9884 0.204272 14.8545 0.209775 14.7195C0.215277 14.5845 0.257139 14.4535 0.330936 14.3403C1.38666 12.7153 2.93952 11.4752 4.75781 10.805C3.75262 10.1358 2.98947 9.16091 2.58121 8.02445C2.17296 6.88798 2.14127 5.6503 2.49083 4.49443C2.8404 3.33856 3.55266 2.32587 4.52228 1.60611C5.49191 0.886355 6.66743 0.497742 7.875 0.497742C9.08257 0.497742 10.2581 0.886355 11.2277 1.60611C12.1973 2.32587 12.9096 3.33856 13.2592 4.49443C13.6087 5.6503 13.577 6.88798 13.1688 8.02445C12.7605 9.16091 11.9974 10.1358 10.9922 10.805C12.8105 11.4752 14.3633 12.7153 15.4191 14.3403ZM23.6606 14.3263C22.6046 12.7081 21.0552 11.4733 19.2422 10.805C20.4289 10.0057 21.2663 8.78415 21.5841 7.3891C21.9019 5.99405 21.6761 4.53032 20.9528 3.29586C20.2294 2.0614 19.0628 1.149 17.6904 0.744364C16.318 0.33973 14.843 0.473283 13.5656 1.11784C13.5168 1.14306 13.4741 1.17871 13.4405 1.22226C13.407 1.26582 13.3835 1.31622 13.3716 1.36989C13.3597 1.42356 13.3597 1.47918 13.3717 1.53283C13.3837 1.58648 13.4073 1.63684 13.4409 1.68034C14.3908 2.86516 14.9363 4.323 14.9975 5.84032C15.0588 7.35764 14.6325 8.8547 13.7812 10.1122C13.7262 10.1944 13.7059 10.295 13.7247 10.3921C13.7435 10.4892 13.7999 10.5749 13.8816 10.6306C14.9915 11.4053 15.9416 12.3866 16.68 13.521C16.9778 13.977 17.0994 14.5259 17.0222 15.065C17.0135 15.1187 17.0166 15.1735 17.0312 15.2259C17.0458 15.2782 17.0716 15.3267 17.1068 15.3681C17.142 15.4095 17.1858 15.4427 17.2351 15.4655C17.2845 15.4883 17.3382 15.5 17.3925 15.5H23.0456C23.2108 15.5001 23.3713 15.4456 23.5024 15.3451C23.6334 15.2446 23.7276 15.1036 23.7703 14.9441C23.7964 14.8392 23.8001 14.7299 23.7812 14.6235C23.7623 14.5171 23.7212 14.4158 23.6606 14.3263Z" fill="#EE007E"/>
</svg>
