<svg width="90" height="79" viewBox="0 0 90 79" fill="none" xmlns="http://www.w3.org/2000/svg">
<path d="M4.33618 79C3.5324 79 2.80168 78.7981 2.14404 78.3943C1.4864 77.9905 0.974904 77.4609 0.609548 76.8055C0.244192 76.1472 0.042515 75.4333 0.00451794 74.6637C-0.0334791 73.8942 0.168198 73.1452 0.609548 72.4166L41.1641 2.19444C41.6025 1.46296 42.1695 0.914351 42.8652 0.548611C43.5608 0.18287 44.2725 0 45.0003 0C45.731 0 46.4442 0.18287 47.1398 0.548611C47.8355 0.914351 48.401 1.46296 48.8366 2.19444L89.3911 72.4166C89.8295 73.1481 90.0312 73.8986 89.9961 74.6681C89.961 75.4377 89.7594 76.1501 89.3911 76.8055C89.0257 77.4639 88.5142 77.9949 87.8566 78.3987C87.1989 78.8025 86.4682 79.0029 85.6644 79H4.33618ZM45.0003 65.8333C46.2425 65.8333 47.2845 65.412 48.1263 64.5693C48.9681 63.7266 49.3875 62.685 49.3846 61.4444C49.3846 60.2009 48.9637 59.1578 48.1219 58.3151C47.2801 57.4725 46.2396 57.0526 45.0003 57.0555C43.7581 57.0555 42.7161 57.4769 41.8743 58.3195C41.0325 59.1622 40.6131 60.2038 40.616 61.4444C40.616 62.6879 41.0369 63.731 41.8787 64.5737C42.7205 65.4164 43.761 65.8362 45.0003 65.8333ZM45.0003 52.6666C46.2425 52.6666 47.2845 52.2453 48.1263 51.4026C48.9681 50.56 49.3875 49.5183 49.3846 48.2778V35.1111C49.3846 33.8676 48.9637 32.8245 48.1219 31.9818C47.2801 31.1392 46.2396 30.7193 45.0003 30.7222C43.7581 30.7222 42.7161 31.1435 41.8743 31.9862C41.0325 32.8289 40.6131 33.8705 40.616 35.1111V48.2778C40.616 49.5213 41.0369 50.5644 41.8787 51.407C42.7205 52.2497 43.761 52.6696 45.0003 52.6666Z" fill="#FFD150"/>
</svg>
